<?xml version="1.0" encoding="iso-8859-1"?>
<!-- Generator: Adobe Illustrator 19.0.0, SVG Export Plug-In . SVG Version: 6.00 Build 0)  -->
<svg version="1.1" id="Capa_1" xmlns="http://www.w3.org/2000/svg" xmlns:xlink="http://www.w3.org/1999/xlink" x="0px" y="0px"
	 viewBox="0 0 512 512" style="enable-background:new 0 0 512 512;" xml:space="preserve">
<linearGradient id="SVGID_1_" gradientUnits="userSpaceOnUse" x1="0.0542" y1="258.0008" x2="511.9463" y2="258.0008" gradientTransform="matrix(1 0 0 -1 0 514.001)">
	<stop  offset="0" style="stop-color:#00F2FE"/>
	<stop  offset="0.021" style="stop-color:#03EFFE"/>
	<stop  offset="0.293" style="stop-color:#24D2FE"/>
	<stop  offset="0.554" style="stop-color:#3CBDFE"/>
	<stop  offset="0.796" style="stop-color:#4AB0FE"/>
	<stop  offset="1" style="stop-color:#4FACFE"/>
</linearGradient>
<path style="fill:url(#SVGID_1_);" d="M488.474,239.616L325.232,76.951l42.849-42.802c7.814-7.806,7.821-20.47,0.015-28.284
	c-7.805-7.815-20.468-7.821-28.284-0.016L98.436,246.962c-33.694,9.421-58.49,40.379-58.49,77.039c0,11.046,8.954,20,20,20
	s20-8.954,20-20c0-15.523,8.894-28.999,21.848-35.626l169.187,168.607c15.594,15.578,36.068,23.364,56.545,23.363
	c20.48-0.001,40.963-7.794,56.544-23.375l104.445-104.175c15.113-15.114,23.435-35.209,23.431-56.584
	C511.942,274.836,503.613,254.743,488.474,239.616z M460.249,324.492L355.804,428.668c-15.587,15.588-40.959,15.594-56.569-0.002
	L154.072,284.001h221.875c11.046,0,20-8.954,20-20c0-11.046-8.954-20-20-20H158l138.932-138.78l163.288,162.71
	c7.56,7.554,11.725,17.6,11.727,28.288C471.948,306.906,467.788,316.953,460.249,324.492z M74.506,371.303
	c-3.799-4.623-9.469-7.302-15.452-7.302s-11.653,2.679-15.452,7.302c-0.424,0.516-10.488,12.796-20.665,27.991
	C2.426,429.918,0.054,444.612,0.054,453.001c0,32.533,26.468,59,59,59s59-26.467,59-59c0-8.389-2.372-23.083-22.883-53.707
	C84.994,384.099,74.93,371.819,74.506,371.303z M59.054,472.001c-10.477,0-19-8.523-19.001-18.952
	c0.004-0.08,0.526-8.269,16.288-31.75c0.907-1.35,1.813-2.677,2.713-3.971c0.899,1.294,1.806,2.621,2.713,3.971
	c15.488,23.074,16.262,31.381,16.287,31.738C78.034,463.497,69.518,472.001,59.054,472.001z"/>
<g>
</g>
<g>
</g>
<g>
</g>
<g>
</g>
<g>
</g>
<g>
</g>
<g>
</g>
<g>
</g>
<g>
</g>
<g>
</g>
<g>
</g>
<g>
</g>
<g>
</g>
<g>
</g>
<g>
</g>
</svg>
