<?xml version="1.0" encoding="iso-8859-1"?>
<!-- Generator: Adobe Illustrator 19.0.0, SVG Export Plug-In . SVG Version: 6.00 Build 0)  -->
<svg version="1.1" id="Capa_1" xmlns="http://www.w3.org/2000/svg" xmlns:xlink="http://www.w3.org/1999/xlink" x="0px" y="0px"
	 viewBox="0 0 512 512" style="enable-background:new 0 0 512 512;" xml:space="preserve">
<path style="fill:#00B6BE;" d="M512,106.951v298.098c0,38.075-30.971,69.046-69.046,69.046H69.046
	C30.981,474.095,0,443.124,0,405.049V106.951c0-38.075,30.981-69.046,69.046-69.046h373.908C481.029,37.905,512,68.876,512,106.951z
	"/>
<path style="fill:#007A9F;" d="M512,106.951v298.098c0,38.075-30.971,69.046-69.046,69.046H255.77V37.905h187.184
	C481.029,37.905,512,68.876,512,106.951z"/>
<g>
	<path style="fill:#00DD7B;" d="M74.59,128.215c-0.49,0-0.991-0.02-1.481-0.07c-0.48-0.05-0.971-0.12-1.451-0.22
		c-0.48-0.09-0.961-0.22-1.431-0.36c-0.46-0.14-0.931-0.31-1.381-0.489c-0.45-0.19-0.901-0.4-1.331-0.63
		c-0.43-0.23-0.851-0.48-1.261-0.751c-0.41-0.271-0.811-0.57-1.181-0.882c-0.39-0.31-0.751-0.64-1.101-0.99
		c-2.792-2.792-4.393-6.664-4.393-10.608c0-0.49,0.02-0.991,0.07-1.48c0.05-0.48,0.12-0.972,0.22-1.451
		c0.1-0.48,0.22-0.961,0.36-1.431c0.14-0.471,0.31-0.932,0.5-1.382c0.18-0.449,0.39-0.9,0.62-1.33
		c0.23-0.431,0.49-0.852,0.761-1.262c0.27-0.41,0.56-0.811,0.871-1.181c0.31-0.39,0.64-0.751,0.991-1.101
		c0.35-0.351,0.71-0.681,1.101-0.991c0.37-0.311,0.771-0.601,1.181-0.881c0.41-0.271,0.831-0.521,1.261-0.75
		c0.43-0.23,0.881-0.44,1.331-0.63c0.45-0.181,0.921-0.351,1.381-0.49c0.47-0.141,0.951-0.271,1.431-0.36
		c0.48-0.1,0.971-0.17,1.451-0.22c0.981-0.1,1.971-0.1,2.952,0c0.49,0.05,0.981,0.12,1.461,0.22c0.48,0.09,0.961,0.22,1.421,0.36
		c0.47,0.14,0.931,0.31,1.381,0.49c0.46,0.189,0.901,0.399,1.331,0.63c0.43,0.229,0.861,0.479,1.261,0.75
		c0.41,0.279,0.811,0.569,1.191,0.881c0.38,0.31,0.751,0.64,1.091,0.991c0.35,0.35,0.68,0.71,0.991,1.101
		c0.31,0.37,0.61,0.771,0.881,1.181c0.27,0.41,0.52,0.831,0.75,1.262c0.23,0.43,0.44,0.881,0.63,1.33
		c0.18,0.45,0.35,0.911,0.49,1.382c0.15,0.47,0.27,0.95,0.36,1.431c0.1,0.479,0.17,0.971,0.22,1.451c0.05,0.489,0.08,0.99,0.08,1.48
		c0,3.943-1.601,7.816-4.403,10.608c-0.34,0.35-0.71,0.68-1.091,0.99c-0.38,0.311-0.781,0.61-1.191,0.882
		c-0.4,0.27-0.831,0.52-1.261,0.751c-0.43,0.229-0.871,0.439-1.331,0.63c-0.45,0.18-0.911,0.35-1.381,0.489
		c-0.46,0.141-0.941,0.271-1.421,0.36c-0.48,0.1-0.971,0.17-1.461,0.22C75.57,128.195,75.08,128.215,74.59,128.215z"/>
	<path style="fill:#00DD7B;" d="M134.629,128.215c-0.49,0-0.991-0.02-1.481-0.07c-0.48-0.05-0.971-0.12-1.451-0.22
		c-0.48-0.09-0.961-0.22-1.431-0.36c-0.46-0.14-0.931-0.31-1.381-0.489c-0.45-0.19-0.901-0.4-1.331-0.63
		c-0.43-0.23-0.851-0.48-1.261-0.751c-0.41-0.271-0.811-0.57-1.181-0.882c-0.38-0.31-0.75-0.64-1.101-0.99
		c-2.792-2.792-4.393-6.664-4.393-10.608c0-0.49,0.02-0.991,0.07-1.48c0.05-0.48,0.12-0.972,0.22-1.451
		c0.1-0.48,0.22-0.961,0.36-1.431c0.14-0.471,0.31-0.932,0.5-1.382c0.18-0.449,0.39-0.9,0.62-1.33
		c0.23-0.431,0.49-0.852,0.761-1.262c0.27-0.41,0.56-0.811,0.871-1.181c0.31-0.39,0.64-0.751,0.991-1.101
		c0.35-0.351,0.71-0.681,1.101-0.991c0.37-0.311,0.771-0.601,1.181-0.881c0.41-0.271,0.831-0.521,1.261-0.75
		c0.43-0.23,0.881-0.44,1.331-0.63c0.45-0.181,0.921-0.351,1.381-0.49c0.47-0.141,0.951-0.271,1.431-0.36
		c0.48-0.1,0.971-0.17,1.451-0.22c0.981-0.1,1.971-0.1,2.952,0c0.49,0.05,0.981,0.12,1.461,0.22c0.48,0.09,0.961,0.22,1.421,0.36
		c0.47,0.14,0.931,0.31,1.381,0.49c0.46,0.189,0.901,0.399,1.331,0.63c0.43,0.229,0.861,0.479,1.261,0.75
		c0.41,0.279,0.811,0.569,1.191,0.881c0.38,0.31,0.751,0.64,1.091,0.991c0.35,0.35,0.68,0.71,0.991,1.101
		c0.31,0.37,0.61,0.771,0.881,1.181c0.27,0.41,0.52,0.831,0.75,1.262c0.23,0.43,0.44,0.881,0.63,1.33
		c0.18,0.45,0.35,0.911,0.49,1.382c0.15,0.47,0.27,0.95,0.36,1.431c0.1,0.479,0.17,0.971,0.22,1.451c0.05,0.489,0.08,0.99,0.08,1.48
		c0,3.943-1.601,7.816-4.403,10.608c-0.34,0.35-0.71,0.68-1.091,0.99c-0.38,0.311-0.781,0.61-1.191,0.882
		c-0.4,0.27-0.831,0.52-1.261,0.751c-0.43,0.229-0.881,0.439-1.331,0.63c-0.45,0.18-0.911,0.35-1.381,0.489
		c-0.47,0.141-0.941,0.271-1.421,0.36c-0.48,0.1-0.971,0.17-1.461,0.22C135.61,128.195,135.12,128.215,134.629,128.215z"/>
	<path style="fill:#00DD7B;" d="M194.669,128.215c-0.49,0-0.991-0.02-1.481-0.07c-0.48-0.05-0.971-0.12-1.451-0.22
		c-0.48-0.09-0.961-0.22-1.431-0.36c-0.46-0.14-0.931-0.31-1.381-0.489c-0.45-0.19-0.901-0.4-1.331-0.63
		c-0.43-0.23-0.851-0.48-1.261-0.751c-0.41-0.271-0.811-0.57-1.181-0.882c-0.39-0.31-0.75-0.64-1.101-0.99
		c-2.792-2.792-4.393-6.664-4.393-10.608c0-0.49,0.02-0.991,0.07-1.48c0.05-0.48,0.12-0.972,0.22-1.451
		c0.1-0.48,0.22-0.961,0.36-1.431c0.14-0.471,0.31-0.932,0.5-1.382c0.18-0.449,0.39-0.9,0.62-1.33
		c0.23-0.431,0.49-0.852,0.761-1.262c0.27-0.41,0.56-0.811,0.871-1.181c0.31-0.39,0.64-0.751,0.991-1.101
		c0.35-0.351,0.71-0.681,1.101-0.991c0.37-0.311,0.771-0.601,1.181-0.881c0.41-0.271,0.831-0.521,1.261-0.75
		c0.43-0.23,0.881-0.44,1.331-0.63c0.45-0.181,0.921-0.351,1.381-0.49c0.47-0.141,0.951-0.271,1.431-0.36
		c0.48-0.1,0.971-0.17,1.451-0.22c0.981-0.1,1.971-0.1,2.952,0c0.49,0.05,0.981,0.12,1.461,0.22c0.48,0.09,0.961,0.22,1.421,0.36
		c0.47,0.14,0.931,0.31,1.391,0.49c0.45,0.189,0.891,0.399,1.321,0.63c0.43,0.229,0.861,0.479,1.261,0.75
		c0.41,0.279,0.811,0.569,1.191,0.881c0.38,0.31,0.75,0.64,1.091,0.991c0.35,0.35,0.68,0.71,0.991,1.101
		c0.31,0.37,0.61,0.771,0.881,1.181c0.27,0.41,0.52,0.831,0.75,1.262c0.23,0.43,0.44,0.881,0.63,1.33
		c0.18,0.45,0.35,0.911,0.49,1.382c0.15,0.47,0.27,0.95,0.36,1.431c0.1,0.479,0.17,0.971,0.22,1.451c0.05,0.489,0.08,0.99,0.08,1.48
		c0,3.943-1.601,7.816-4.403,10.608c-0.34,0.35-0.71,0.68-1.091,0.99c-0.38,0.311-0.781,0.61-1.191,0.882
		c-0.4,0.27-0.831,0.52-1.261,0.751c-0.43,0.229-0.871,0.439-1.331,0.63c-0.45,0.18-0.911,0.35-1.381,0.489
		c-0.46,0.141-0.941,0.271-1.421,0.36c-0.48,0.1-0.971,0.17-1.461,0.22C195.65,128.195,195.16,128.215,194.669,128.215z"/>
</g>
<g>
	<path style="fill:#FFFFFF;" d="M130.636,196.48c-2.211-1.151-4.853-1.721-7.915-1.721c-3.072,0-5.714,0.57-7.915,1.721
		c-2.211,1.151-3.312,2.832-3.312,5.043v35.253H82.864v-35.253c0-2.211-1.111-3.893-3.312-5.043
		c-2.211-1.151-4.843-1.721-7.915-1.721c-3.072,0-5.704,0.57-7.915,1.721c-2.211,1.151-3.312,2.832-3.312,5.043v91.511
		c0,2.211,1.101,3.913,3.312,5.103c2.211,1.201,4.843,1.801,7.915,1.801s5.704-0.6,7.915-1.801c2.201-1.191,3.312-2.892,3.312-5.103
		v-38.996h28.629v38.996c0,2.211,1.101,3.913,3.312,5.103c2.201,1.201,4.843,1.801,7.915,1.801c3.062,0,5.704-0.6,7.915-1.801
		c2.201-1.191,3.302-2.892,3.302-5.103v-91.511C133.938,199.312,132.837,197.631,130.636,196.48z"/>
	<path style="fill:#FFFFFF;" d="M216.823,197.621c-1.151-1.911-2.832-2.862-5.043-2.862h-62.151c-2.211,0-3.893,0.951-5.043,2.862
		s-1.721,4.173-1.721,6.785c0,2.792,0.59,5.143,1.791,7.055c1.201,1.911,2.862,2.862,4.973,2.862h19.853v78.662
		c0,2.221,1.101,3.943,3.312,5.143c2.201,1.211,4.843,1.811,7.915,1.811c3.062,0,5.704-0.6,7.905-1.811
		c2.211-1.201,3.312-2.922,3.312-5.143v-78.662h19.853c2.111,0,3.773-0.951,4.973-2.862c1.191-1.911,1.791-4.263,1.791-7.055
		C218.544,201.794,217.974,199.532,216.823,197.621z"/>
	<path style="fill:#FFFFFF;" d="M294.805,197.621c-1.151-1.911-2.822-2.862-5.033-2.862H227.61c-2.201,0-3.883,0.951-5.033,2.862
		s-1.731,4.173-1.731,6.785c0,2.792,0.6,5.143,1.801,7.055c1.201,1.911,2.852,2.862,4.963,2.862h19.863v78.662
		c0,2.221,1.101,3.943,3.302,5.143c1.471,0.811,3.132,1.341,4.993,1.611c0.921,0.13,1.901,0.2,2.922,0.2
		c3.072,0,5.704-0.6,7.915-1.811c2.211-1.201,3.312-2.922,3.312-5.143v-78.662h19.853c2.111,0,3.763-0.951,4.963-2.862
		c1.201-1.911,1.801-4.263,1.801-7.055C296.536,201.794,295.956,199.532,294.805,197.621z"/>
</g>
<g>
	<path style="fill:#DCE6EB;" d="M368.264,202.745c-6.184-5.324-14.41-7.985-24.676-7.985h-29.79c-2.492,0-4.503,0.67-6.044,2.011
		c-1.531,1.341-2.302,2.932-2.302,4.753v91.511c0,2.211,1.101,3.913,3.312,5.103c2.201,1.201,4.843,1.801,7.915,1.801
		c3.072,0,5.704-0.6,7.915-1.801c2.201-1.191,3.312-2.892,3.312-5.103v-31.081h14.239c10.647,0,19.213-2.712,25.687-8.125
		c6.474-5.424,9.716-13.839,9.716-25.257v-0.72C377.55,216.434,374.448,208.068,368.264,202.745z M355.095,230.293
		c0,9.596-4.313,14.39-12.949,14.39h-14.239v-30.36h14.239c8.636,0,12.949,4.803,12.949,14.39V230.293z"/>
	<path style="fill:#DCE6EB;" d="M449.558,254.899c-2.251-4.403-5.053-7.835-8.416-10.287c-3.362-2.442-7.025-4.693-11.007-6.764
		c-3.983-2.061-7.645-3.732-11.007-5.033c-3.362-1.291-6.164-2.852-8.416-4.673c-2.262-1.821-3.382-3.833-3.382-6.044
		c0-2.402,1.201-4.433,3.592-6.114c2.402-1.681,5.994-2.522,10.797-2.522c4.503,0,8.636,0.911,12.378,2.732
		c3.732,1.831,6.184,2.742,7.335,2.742c2.782,0,4.963-1.371,6.544-4.103c1.581-2.722,2.372-5.354,2.372-7.895
		c0-2.662-1.071-4.933-3.232-6.815s-4.943-3.232-8.346-4.073c-3.412-0.851-6.474-1.411-9.206-1.711
		c-2.742-0.3-5.354-0.45-7.845-0.45c-10.167,0-18.853,2.522-26.047,7.555c-7.195,5.043-10.787,12.638-10.787,22.815
		c0,6.234,1.551,11.608,4.673,16.111c3.112,4.513,6.935,7.985,11.438,10.437c4.513,2.442,8.996,4.653,13.459,6.614
		c4.463,1.971,8.245,4.153,11.368,6.544c3.112,2.402,4.673,5.183,4.673,8.346c0,3.172-1.391,5.544-4.173,7.125
		c-2.782,1.581-6.044,2.372-9.786,2.372c-2.972,0-5.804-0.58-8.486-1.741c-2.692-1.161-4.773-2.452-6.264-3.863
		c-1.481-1.421-3.112-2.702-4.893-3.873c-1.771-1.161-3.372-1.741-4.813-1.741c-2.592,0-4.873,1.341-6.835,4.023
		c-1.971,2.692-2.952,5.374-2.952,8.065c0,4.793,3.452,9.116,10.357,12.949c6.905,3.833,15.01,5.754,24.316,5.754
		c10.747,0,19.433-2.752,26.047-8.266c6.624-5.514,9.927-13.209,9.927-23.105C452.94,264.356,451.809,259.312,449.558,254.899z"/>
</g>
<path style="fill:#FFFFFF;" d="M450.838,344.189c0,8.286-6.724,15.01-15.01,15.01H74.068c-8.296,0-15.01-6.724-15.01-15.01
	c0-8.296,6.714-15.01,15.01-15.01h361.76C444.114,329.179,450.838,335.893,450.838,344.189z"/>
<g>
	<path style="fill:#DCE6EB;" d="M258.691,299.939c-1.021,0-2.001-0.07-2.922-0.2v-104.98h34.003c2.211,0,3.883,0.951,5.033,2.862
		s1.731,4.173,1.731,6.785c0,2.792-0.6,5.143-1.801,7.055c-1.201,1.911-2.852,2.862-4.963,2.862h-19.853v78.662
		c0,2.221-1.101,3.943-3.312,5.143C264.395,299.339,261.763,299.939,258.691,299.939z"/>
	<path style="fill:#DCE6EB;" d="M450.838,344.189c0,8.286-6.724,15.01-15.01,15.01h-180.06v-30.02h180.06
		C444.114,329.179,450.838,335.893,450.838,344.189z"/>
</g>
<g>
</g>
<g>
</g>
<g>
</g>
<g>
</g>
<g>
</g>
<g>
</g>
<g>
</g>
<g>
</g>
<g>
</g>
<g>
</g>
<g>
</g>
<g>
</g>
<g>
</g>
<g>
</g>
<g>
</g>
</svg>
